<mxfile host="Electron" modified="2024-04-17T14:22:13.715Z" agent="Mozilla/5.0 (X11; Linux x86_64) AppleWebKit/537.36 (KHTML, like Gecko) draw.io/24.1.0 Chrome/120.0.6099.109 Electron/28.1.0 Safari/537.36" etag="5e30JooecyaT2pR7geCk" version="24.1.0" type="device">
  <diagram name="第 1 页" id="gv1MWXk4KOd7kw6uBpSe">
    <mxGraphModel dx="455" dy="554" grid="1" gridSize="10" guides="1" tooltips="1" connect="1" arrows="1" fold="1" page="1" pageScale="1" pageWidth="827" pageHeight="1169" math="0" shadow="0">
      <root>
        <mxCell id="0" />
        <mxCell id="1" parent="0" />
        <mxCell id="J8rJPJgydi79p2WAYywH-15" value="" style="shape=parallelogram;perimeter=parallelogramPerimeter;whiteSpace=wrap;html=1;fixedSize=1;direction=south;size=40;strokeColor=none;portConstraintRotation=0;noLabel=0;fixedWidth=0;autosize=0;comic=0;treeMoving=0;" vertex="1" parent="1">
          <mxGeometry x="320" y="440" width="80" height="80" as="geometry" />
        </mxCell>
        <mxCell id="J8rJPJgydi79p2WAYywH-17" value="" style="shape=parallelogram;perimeter=parallelogramPerimeter;whiteSpace=wrap;html=1;fixedSize=1;direction=south;size=40;rotation=-180;flipV=1;strokeColor=none;" vertex="1" parent="1">
          <mxGeometry x="320" y="480" width="80" height="80" as="geometry" />
        </mxCell>
        <mxCell id="J8rJPJgydi79p2WAYywH-18" value="" style="endArrow=none;html=1;rounded=0;" edge="1" parent="1">
          <mxGeometry width="50" height="50" relative="1" as="geometry">
            <mxPoint x="320" y="560" as="sourcePoint" />
            <mxPoint x="320" y="560" as="targetPoint" />
            <Array as="points">
              <mxPoint x="400" y="520" />
              <mxPoint x="400" y="480" />
              <mxPoint x="320" y="440" />
              <mxPoint x="320" y="480" />
              <mxPoint x="360" y="500" />
              <mxPoint x="320" y="520" />
            </Array>
          </mxGeometry>
        </mxCell>
        <mxCell id="J8rJPJgydi79p2WAYywH-24" value="&lt;font style=&quot;font-size: 8px;&quot;&gt;input 1&lt;/font&gt;" style="edgeStyle=orthogonalEdgeStyle;rounded=0;orthogonalLoop=1;jettySize=auto;html=1;startArrow=classic;startFill=1;endArrow=none;endFill=0;labelPosition=center;verticalLabelPosition=top;align=center;verticalAlign=bottom;" edge="1" parent="1">
          <mxGeometry x="0.5" relative="1" as="geometry">
            <mxPoint x="280" y="460" as="targetPoint" />
            <mxPoint x="320" y="460" as="sourcePoint" />
            <Array as="points">
              <mxPoint x="300" y="460" />
              <mxPoint x="300" y="460" />
            </Array>
            <mxPoint as="offset" />
          </mxGeometry>
        </mxCell>
        <mxCell id="J8rJPJgydi79p2WAYywH-27" value="&lt;font style=&quot;font-size: 8px;&quot;&gt;input 2&lt;/font&gt;" style="edgeStyle=orthogonalEdgeStyle;rounded=0;orthogonalLoop=1;jettySize=auto;html=1;startArrow=classic;startFill=1;endArrow=none;endFill=0;labelPosition=center;verticalLabelPosition=top;align=center;verticalAlign=bottom;" edge="1" parent="1">
          <mxGeometry x="0.5" relative="1" as="geometry">
            <mxPoint x="280" y="540" as="targetPoint" />
            <mxPoint x="320" y="540" as="sourcePoint" />
            <Array as="points">
              <mxPoint x="300" y="540" />
              <mxPoint x="300" y="540" />
            </Array>
            <mxPoint as="offset" />
          </mxGeometry>
        </mxCell>
        <mxCell id="J8rJPJgydi79p2WAYywH-28" style="edgeStyle=orthogonalEdgeStyle;rounded=0;orthogonalLoop=1;jettySize=auto;html=1;startArrow=classic;startFill=1;endArrow=none;endFill=0;exitX=0;exitY=0.5;exitDx=0;exitDy=0;" edge="1" parent="1" source="J8rJPJgydi79p2WAYywH-15">
          <mxGeometry relative="1" as="geometry">
            <mxPoint x="360" y="420" as="targetPoint" />
            <mxPoint x="400" y="420" as="sourcePoint" />
            <Array as="points">
              <mxPoint x="360" y="420" />
            </Array>
          </mxGeometry>
        </mxCell>
        <mxCell id="J8rJPJgydi79p2WAYywH-29" style="edgeStyle=orthogonalEdgeStyle;rounded=0;orthogonalLoop=1;jettySize=auto;html=1;startArrow=classic;startFill=1;endArrow=none;endFill=0;" edge="1" parent="1">
          <mxGeometry relative="1" as="geometry">
            <mxPoint x="400" y="500" as="targetPoint" />
            <mxPoint x="440" y="500" as="sourcePoint" />
            <Array as="points">
              <mxPoint x="420" y="500" />
              <mxPoint x="420" y="500" />
            </Array>
          </mxGeometry>
        </mxCell>
        <mxCell id="J8rJPJgydi79p2WAYywH-34" value="ALU" style="text;strokeColor=none;align=center;fillColor=none;html=1;verticalAlign=middle;whiteSpace=wrap;rounded=0;" vertex="1" parent="1">
          <mxGeometry x="360" y="495" width="40" height="10" as="geometry" />
        </mxCell>
        <mxCell id="J8rJPJgydi79p2WAYywH-37" value="&lt;i&gt;f&lt;/i&gt;" style="text;strokeColor=none;align=center;fillColor=none;html=1;verticalAlign=middle;whiteSpace=wrap;rounded=0;" vertex="1" parent="1">
          <mxGeometry x="355" y="410" width="10" height="10" as="geometry" />
        </mxCell>
        <mxCell id="J8rJPJgydi79p2WAYywH-38" value="&lt;font style=&quot;font-size: 8px;&quot;&gt;&lt;i&gt;f&lt;/i&gt;(&lt;i&gt;input1, input2&lt;/i&gt;)&lt;/font&gt;" style="text;strokeColor=none;align=center;fillColor=none;html=1;verticalAlign=middle;whiteSpace=wrap;rounded=0;" vertex="1" parent="1">
          <mxGeometry x="440" y="495" width="60" height="10" as="geometry" />
        </mxCell>
      </root>
    </mxGraphModel>
  </diagram>
</mxfile>
